<?xml version="1.0" encoding="utf-8"?>
<!-- Generator: Adobe Illustrator 24.2.0, SVG Export Plug-In . SVG Version: 6.00 Build 0)  -->
<svg version="1.1" id="Layer_1" xmlns="http://www.w3.org/2000/svg" xmlns:xlink="http://www.w3.org/1999/xlink" x="0px" y="0px"
	 viewBox="0 0 1000 1000" style="enable-background:new 0 0 1000 1000;" xml:space="preserve">
<style type="text/css">
	.st0{fill-rule:evenodd;clip-rule:evenodd;fill:#ED1C24;}
	.st1{fill-rule:evenodd;clip-rule:evenodd;}
</style>
<g>
	<path class="st0" d="M440.7,333.2c0.5,0.5,113.3,257.7,113.2,257.5c-24.7,0-49.3,0-73.9,0c0-0.8-35-83.9-34.6-84.3
		c-26.6,0-53.1,0-79.7,0C366.4,506.6,441.8,332.3,440.7,333.2L440.7,333.2z"/>
	<path class="st0" d="M200.5,175.2c0.6,0,173.2,0,173.2,0c0.5-0.1-172,415.4-172.6,414.9C201.1,589.5,200.7,174.9,200.5,175.2
		L200.5,175.2z"/>
	<path class="st0" d="M505.6,175.2h179.1c0,1-0.1,415.7-0.1,415.1C684.7,591.6,505.6,175.2,505.6,175.2L505.6,175.2z"/>
	<path class="st1" d="M270.9,655.6l38.5,164.7h-28l-6.6-30.8h-34.8l-6.4,30.8h-28l38.5-164.7H270.9L270.9,655.6L270.9,655.6z
		 M269.4,761.5l-12.1-61.6l-12.1,61.6H269.4L269.4,761.5z"/>
	<path class="st1" d="M372.4,820.3l-0.7-14.3h-0.9c-3.9,11.3-12.1,18.8-22.5,18.8c-24.7,0-35.2-28.9-35.2-64.7
		c0-30.6,7.7-63.7,35.5-63.7c9.7,0,14.3,3.5,21.3,12.7v-53.4h24.7v164.7H372.4L372.4,820.3L372.4,820.3z M354.8,720.6
		c-6.8,0-16.1,6.6-16.1,40c0,15.5,2,40.5,16.1,40.5c13.6,0,16.1-22.3,16.1-40.5C370.9,727.2,361.4,720.6,354.8,720.6L354.8,720.6z"
		/>
	<path class="st1" d="M412,760.3c0-36.9,12.8-64,42-64c29,0,42,27,42,64c0,37.4-13.2,64.5-42,64.5C425,824.8,412,797.7,412,760.3
		L412,760.3L412,760.3z M470.3,760.3c0-32.5-6.8-40-16.3-40c-7.5,0-16.3,5.6-16.3,40c0,35,8.8,40.5,16.3,40.5
		C464.6,800.8,470.3,790.9,470.3,760.3L470.3,760.3z"/>
	<path class="st1" d="M535.1,820.3h-22.2V655.6h24.9v54.8c5.1-11.8,14.8-14.1,21.1-14.1c26.2,0,35.7,27.5,35.7,63.7
		c0,36-9.3,64.7-35.5,64.7c-10.8,0-17.2-5.4-22.5-18.8h-0.7L535.1,820.3L535.1,820.3L535.1,820.3z M552.9,800.8
		c13.6,0,16.1-22.3,16.1-40.5c0-33.4-9.5-40-16.1-40c-6.8,0-16.1,6.6-16.1,40C536.8,775.8,538.8,800.8,552.9,800.8L552.9,800.8z"/>
	<path class="st1" d="M688.5,785.7c-6.2,36.2-26.4,39-39.9,39c-15.2,0-41.2-5.6-41.2-64.5c0-40.9,16.9-64,43.1-64
		c16.5,0,39.8,9.2,39.8,66.3v6.6H633c0,28.2,9.7,31.5,16.7,31.5c5.7,0,11.5-1.6,13.9-15.1H688.5L688.5,785.7L688.5,785.7z
		 M664.5,749.3c-0.7-24.2-6.6-28.9-14.8-28.9c-14.1,0-16.5,20-16.7,28.9H664.5L664.5,749.3z"/>
	<path class="st1" d="M697.3,184.9v-9.7h42.2v9.7h-15.6V226h-11v-41.1H697.3L697.3,184.9L697.3,184.9z M753.1,186.8V226h-11v-50.7
		h14.5l14.3,39.9l14.2-39.9h14.3V226h-11v-39.2L774.6,226h-7.7L753.1,186.8L753.1,186.8z"/>
</g>
</svg>
